<?xml version="1.0" standalone="no"?>
<!DOCTYPE svg PUBLIC "-//W3C//DTD SVG 20010904//EN"
 "http://www.w3.org/TR/2001/REC-SVG-20010904/DTD/svg10.dtd">
<svg version="1.0" xmlns="http://www.w3.org/2000/svg"
 width="596.000000pt" height="842.000000pt" viewBox="0 0 596.000000 842.000000"
 preserveAspectRatio="xMidYMid meet">
<metadata>
Created by potrace 1.15, written by Peter Selinger 2001-2017
</metadata>
<g transform="translate(0.000000,842.000000) scale(0.100000,-0.100000)"
fill="#000000" stroke="none">
<path d="M2675 5865 c-221 -35 -399 -100 -521 -190 -27 -20 -85 -73 -130 -118
-44 -45 -102 -98 -130 -117 -103 -73 -255 -232 -349 -368 -112 -161 -202 -372
-241 -564 -19 -93 -16 -318 4 -355 7 -12 19 -117 27 -235 17 -259 32 -325 110
-498 18 -41 38 -109 45 -150 15 -96 27 -149 53 -230 34 -108 79 -164 187 -233
30 -19 69 -49 85 -67 36 -38 202 -180 211 -180 8 0 2 25 -26 115 -34 110 -92
326 -109 410 -46 218 -58 287 -70 395 -6 52 -16 133 -21 179 -6 46 -10 181
-10 300 l0 216 -84 -85 c-77 -79 -84 -89 -97 -147 -7 -35 -18 -63 -25 -63 -20
0 -92 87 -102 124 -7 23 -7 48 -1 69 15 51 11 109 -12 173 -61 173 5 443 169
694 96 146 286 354 379 414 35 22 169 64 388 121 50 13 125 33 168 45 161 43
238 53 407 53 246 1 400 -34 620 -140 131 -63 191 -83 261 -88 57 -4 79 -16
173 -99 206 -181 355 -399 447 -651 30 -81 33 -101 33 -200 0 -92 -4 -118 -22
-159 -20 -43 -22 -63 -20 -160 3 -99 1 -114 -18 -141 -11 -16 -24 -38 -27 -48
-12 -32 -45 -2 -62 56 -10 34 -27 64 -48 83 -37 35 -116 89 -120 83 -2 -2 0
-44 3 -94 10 -131 -16 -507 -50 -725 -42 -272 -69 -422 -99 -555 -25 -113 -25
-106 -5 -98 37 13 190 113 254 165 76 62 148 164 173 246 20 62 47 217 47 269
0 18 11 56 23 85 83 187 97 259 97 504 0 193 2 217 21 261 93 216 -50 657
-322 988 -62 76 -238 252 -279 279 -14 9 -47 38 -75 65 -218 211 -449 318
-802 370 -95 14 -407 12 -508 -4z"/>
<path d="M2278 5000 c-51 -15 -89 -45 -108 -85 -26 -53 -25 -90 3 -145 19 -39
33 -51 108 -90 106 -55 119 -66 119 -97 0 -18 -9 -28 -37 -39 -46 -20 -103
-12 -162 21 -23 14 -45 25 -47 25 -2 0 -4 -29 -4 -65 0 -62 1 -66 28 -77 42
-17 190 -22 242 -8 27 7 59 26 82 50 36 36 38 41 38 102 0 92 -17 114 -140
177 -41 21 -83 48 -94 60 -17 19 -17 22 -3 45 21 31 76 41 153 27 32 -6 59
-11 61 -11 2 0 3 23 1 52 -3 46 -6 53 -28 59 -34 10 -179 9 -212 -1z"/>
<path d="M2580 4950 l0 -50 80 0 80 0 0 -230 0 -230 65 0 65 0 0 230 0 230 80
0 80 0 0 50 0 50 -225 0 -225 0 0 -50z"/>
<path d="M3100 4720 l0 -280 170 0 170 0 0 50 0 50 -100 0 -100 0 0 65 0 65
90 0 90 0 0 50 0 50 -90 0 -90 0 0 65 0 65 95 0 95 0 0 50 0 50 -165 0 -165 0
0 -280z"/>
<path d="M3520 4720 l0 -280 70 0 70 0 0 100 0 100 63 0 c76 0 130 23 174 73
80 91 39 245 -73 276 -21 6 -99 11 -171 11 l-133 0 0 -280z m252 162 c14 -14
21 -33 21 -62 0 -55 -26 -81 -87 -87 l-46 -6 0 93 0 93 46 -6 c28 -3 54 -13
66 -25z"/>
<path d="M1945 4261 c-55 -25 -86 -62 -96 -113 -11 -60 -11 -281 1 -396 21
-202 55 -425 90 -587 5 -27 14 -72 20 -100 24 -131 102 -412 125 -450 28 -49
63 -74 111 -82 92 -15 139 87 152 338 18 326 -47 852 -139 1131 -43 129 -76
193 -125 238 -50 45 -77 50 -139 21z"/>
<path d="M3893 4241 c-69 -43 -142 -224 -182 -456 -46 -268 -56 -391 -56 -710
0 -312 7 -374 51 -485 18 -46 66 -90 96 -90 29 0 89 37 116 71 22 27 61 157
84 279 5 30 14 78 19 105 30 154 59 350 89 595 12 101 13 516 1 578 -10 51
-41 88 -96 113 -51 24 -82 24 -122 0z"/>
<path d="M2461 3904 c-12 -15 -21 -31 -21 -36 0 -23 24 -50 61 -69 50 -25 46
-45 -10 -42 -37 2 -41 0 -41 -23 0 -22 3 -24 53 -24 71 0 99 20 95 68 -3 31
-9 40 -43 59 -52 29 -53 49 -2 46 33 -2 37 0 37 22 0 24 -3 25 -54 25 -47 0
-57 -4 -75 -26z"/>
<path d="M2649 3901 c-25 -25 -29 -37 -29 -81 0 -44 4 -56 29 -81 51 -51 146
-36 176 26 19 41 19 66 1 110 -18 42 -42 55 -101 55 -38 0 -52 -5 -76 -29z"/>
<path d="M2860 3846 c0 -107 18 -136 86 -136 25 0 54 4 64 10 26 14 40 63 40
141 l0 69 -30 0 -30 0 0 -74 c0 -54 -4 -79 -16 -90 -36 -37 -54 -9 -54 86 l0
78 -30 0 -30 0 0 -84z"/>
<path d="M3090 3820 l0 -110 25 0 c23 0 24 3 27 66 l3 66 42 -66 c37 -58 46
-66 73 -66 l30 0 0 110 0 110 -30 0 -30 0 0 -62 0 -63 -41 63 c-35 52 -46 62
-70 62 l-29 0 0 -110z"/>
<path d="M3330 3820 l0 -110 66 0 c59 0 68 3 94 28 37 37 46 87 26 135 -18 45
-46 57 -127 57 l-59 0 0 -110z"/>
<path d="M2860 3470 c-15 -15 -20 -33 -20 -70 0 -100 90 -126 120 -35 28 84
-45 160 -100 105z"/>
<path d="M3210 3470 c-11 -11 -20 -29 -20 -40 0 -30 38 -63 66 -57 24 4 24 4
7 -15 -10 -11 -27 -18 -42 -16 -18 2 -26 -2 -26 -12 0 -11 10 -15 38 -14 65 2
98 54 77 120 -18 54 -64 70 -100 34z"/>
</g>
</svg>
